<svg width="16" height="15" viewBox="0 0 16 15" fill="none" xmlns="http://www.w3.org/2000/svg">
<path d="M4.83282 10.256H4.83352C4.83411 10.256 4.83469 10.2559 4.83525 10.2559H12.8028C12.8982 10.2559 12.9911 10.2247 13.0674 10.1672C13.1436 10.1097 13.199 10.029 13.2253 9.93715L14.9831 3.7848C15.0018 3.71941 15.005 3.65058 14.9926 3.58372C14.9802 3.51686 14.9524 3.45379 14.9115 3.39949C14.8705 3.34518 14.8175 3.30111 14.7566 3.27077C14.6957 3.24042 14.6286 3.22462 14.5606 3.22461H3.81935L3.50523 1.81092C3.48352 1.71331 3.42918 1.62602 3.35118 1.56346C3.27317 1.50089 3.17617 1.4668 3.07618 1.4668H0.439454C0.196729 1.4668 0 1.66353 0 1.90625C0 2.14898 0.196729 2.3457 0.439454 2.3457H2.72371C2.77931 2.59619 4.22699 9.11089 4.31031 9.48566C3.84329 9.68868 3.51563 10.1544 3.51563 10.6953C3.51563 11.4222 4.10708 12.0137 4.83399 12.0137H12.8028C13.0455 12.0137 13.2422 11.817 13.2422 11.5742C13.2422 11.3315 13.0455 11.1348 12.8028 11.1348H4.83399C4.59171 11.1348 4.39454 10.9376 4.39454 10.6953C4.39454 10.4534 4.59103 10.2565 4.83282 10.256ZM13.978 4.10352L12.4712 9.37697H5.18649L4.01462 4.10352H13.978ZM4.39454 13.332C4.39454 14.059 4.98598 14.6504 5.7129 14.6504C6.43981 14.6504 7.03126 14.059 7.03126 13.332C7.03126 12.6051 6.43981 12.0137 5.7129 12.0137C4.98598 12.0137 4.39454 12.6051 4.39454 13.332ZM5.7129 12.8926C5.95518 12.8926 6.15235 13.0898 6.15235 13.332C6.15235 13.5743 5.95518 13.7715 5.7129 13.7715C5.47061 13.7715 5.27345 13.5743 5.27345 13.332C5.27345 13.0898 5.47061 12.8926 5.7129 12.8926ZM10.6055 13.332C10.6055 14.059 11.1969 14.6504 11.9238 14.6504C12.6508 14.6504 13.2422 14.059 13.2422 13.332C13.2422 12.6051 12.6508 12.0137 11.9238 12.0137C11.1969 12.0137 10.6055 12.6051 10.6055 13.332ZM11.9238 12.8926C12.1661 12.8926 12.3633 13.0898 12.3633 13.332C12.3633 13.5743 12.1661 13.7715 11.9238 13.7715C11.6816 13.7715 11.4844 13.5743 11.4844 13.332C11.4844 13.0898 11.6816 12.8926 11.9238 12.8926Z" fill="black"/>
<circle cx="13.5" cy="2.9668" r="2.5" fill="#D90000"/>
</svg>
