<svg width="15" height="18" viewBox="0 0 15 18" fill="none" xmlns="http://www.w3.org/2000/svg">
<path d="M7.5 0.466797C5.0187 0.466797 3 2.4855 3 4.9668C3 7.4481 5.0187 9.4668 7.5 9.4668C9.9813 9.4668 12 7.4481 12 4.9668C12 2.4855 9.9813 0.466797 7.5 0.466797ZM7.5 8.4668C5.5701 8.4668 4 6.8967 4 4.9668C4 3.0369 5.5701 1.4668 7.5 1.4668C9.4299 1.4668 11 3.0369 11 4.9668C11 6.8967 9.4299 8.4668 7.5 8.4668ZM13.0989 12.4066C11.8669 11.1557 10.2336 10.4668 8.5 10.4668H6.5C4.7664 10.4668 3.13313 11.1557 1.90113 12.4066C0.675167 13.6514 0 15.2946 0 17.0335C0 17.3096 0.223867 17.5335 0.5 17.5335H14.5C14.7761 17.5335 15 17.3096 15 17.0335C15 15.2946 14.3248 13.6514 13.0989 12.4066ZM1.022 16.5335C1.2725 13.6973 3.6337 11.4668 6.5 11.4668H8.5C11.3663 11.4668 13.7275 13.6973 13.978 16.5335H1.022Z" fill="black"/>
</svg>
