<svg width="105" height="24" viewBox="0 0 105 24" fill="none" xmlns="http://www.w3.org/2000/svg">
<path d="M31.4347 19V4.45455H34.0696V11.1378H34.2472L39.9219 4.45455H43.1392L37.5142 10.9815L43.1889 19H40.0213L35.6818 12.7642L34.0696 14.6676V19H31.4347ZM47.9954 19.2202C47.3041 19.2202 46.6815 19.0971 46.1275 18.8509C45.5782 18.5999 45.1426 18.2306 44.8207 17.7429C44.5034 17.2552 44.3448 16.6539 44.3448 15.9389C44.3448 15.3234 44.4585 14.8144 44.6857 14.4119C44.913 14.0095 45.2231 13.6875 45.6161 13.446C46.0091 13.2045 46.4518 13.0223 46.9442 12.8991C47.4414 12.7713 47.9551 12.679 48.4854 12.6222C49.1246 12.5559 49.6431 12.4967 50.0408 12.4446C50.4386 12.3878 50.7274 12.3026 50.9073 12.1889C51.092 12.0705 51.1843 11.8883 51.1843 11.642V11.5994C51.1843 11.0644 51.0257 10.6501 50.7085 10.3565C50.3912 10.063 49.9343 9.91619 49.3377 9.91619C48.708 9.91619 48.2085 10.0535 47.8391 10.3281C47.4746 10.6027 47.2283 10.9271 47.1005 11.3011L44.6999 10.9602C44.8893 10.2973 45.2018 9.74337 45.6374 9.2983C46.073 8.84848 46.6057 8.51231 47.2354 8.28977C47.8652 8.0625 48.5612 7.94886 49.3235 7.94886C49.8491 7.94886 50.3723 8.01042 50.8931 8.13352C51.4139 8.25663 51.8898 8.46023 52.3207 8.74432C52.7515 9.02367 53.0972 9.40483 53.3576 9.88778C53.6228 10.3707 53.7553 10.9744 53.7553 11.6989V19H51.2837V17.5014H51.1985C51.0423 17.8045 50.8221 18.0885 50.538 18.3537C50.2586 18.6141 49.9059 18.8248 49.4798 18.9858C49.0584 19.142 48.5636 19.2202 47.9954 19.2202ZM48.663 17.331C49.1791 17.331 49.6265 17.2292 50.0053 17.0256C50.3841 16.8172 50.6753 16.5426 50.8789 16.2017C51.0872 15.8608 51.1914 15.4891 51.1914 15.0866V13.8011C51.1109 13.8674 50.9736 13.929 50.7795 13.9858C50.5901 14.0426 50.377 14.0923 50.1403 14.1349C49.9035 14.1776 49.6692 14.2154 49.4371 14.2486C49.2051 14.2817 49.0039 14.3101 48.8335 14.3338C48.4499 14.3859 48.1067 14.4711 47.8036 14.5895C47.5006 14.7079 47.2615 14.8736 47.0863 15.0866C46.9111 15.295 46.8235 15.5649 46.8235 15.8963C46.8235 16.3698 46.9963 16.7273 47.342 16.9688C47.6876 17.2102 48.128 17.331 48.663 17.331ZM56.3406 19V8.09091H58.8335V9.90909H58.9471C59.146 9.27936 59.4869 8.79403 59.9698 8.45312C60.4575 8.10748 61.0138 7.93466 61.6388 7.93466C61.7809 7.93466 61.9395 7.94176 62.1147 7.95597C62.2946 7.96544 62.4438 7.98201 62.5621 8.00568V10.3707C62.4532 10.3329 62.2804 10.2997 62.0437 10.2713C61.8117 10.2382 61.5868 10.2216 61.369 10.2216C60.9002 10.2216 60.4788 10.3234 60.1048 10.527C59.7354 10.7259 59.4442 11.0028 59.2312 11.358C59.0181 11.7131 58.9116 12.1226 58.9116 12.5866V19H56.3406ZM64.2702 19V8.09091H66.7276V9.9446H66.8555C67.0827 9.3196 67.4592 8.83191 67.9847 8.48153C68.5103 8.12642 69.1377 7.94886 69.8668 7.94886C70.6055 7.94886 71.2281 8.12879 71.7347 8.48864C72.2461 8.84375 72.6059 9.32907 72.8143 9.9446H72.9279C73.1694 9.33854 73.5766 8.85559 74.1495 8.49574C74.7272 8.13116 75.4113 7.94886 76.2021 7.94886C77.2058 7.94886 78.025 8.2661 78.6594 8.90057C79.2939 9.53504 79.6112 10.4607 79.6112 11.6776V19H77.033V12.0753C77.033 11.3982 76.8531 10.9034 76.4933 10.5909C76.1334 10.2737 75.6931 10.1151 75.1722 10.1151C74.552 10.1151 74.0666 10.3092 73.7163 10.6974C73.3706 11.081 73.1978 11.5805 73.1978 12.196V19H70.6765V11.9688C70.6765 11.4053 70.506 10.9555 70.1651 10.6193C69.829 10.2831 69.3886 10.1151 68.8441 10.1151C68.4748 10.1151 68.1386 10.2098 67.8356 10.3991C67.5326 10.5838 67.2911 10.8466 67.1112 11.1875C66.9312 11.5237 66.8413 11.9167 66.8413 12.3665V19H64.2702ZM87.049 19.2131C85.9553 19.2131 85.0107 18.9858 84.2152 18.5312C83.4245 18.072 82.8161 17.4233 82.3899 16.5852C81.9638 15.7424 81.7507 14.7505 81.7507 13.6094C81.7507 12.4872 81.9638 11.5024 82.3899 10.6548C82.8208 9.80256 83.4221 9.13968 84.1939 8.66619C84.9657 8.18797 85.8724 7.94886 86.9141 7.94886C87.5864 7.94886 88.2209 8.05777 88.8175 8.27557C89.4188 8.48864 89.9491 8.82008 90.4084 9.26989C90.8724 9.7197 91.237 10.2926 91.5021 10.9886C91.7673 11.6799 91.8999 12.5038 91.8999 13.4602V14.2486H82.9581V12.5156H89.4354C89.4306 12.0232 89.3241 11.5852 89.1158 11.2017C88.9074 10.8134 88.6162 10.508 88.2422 10.2855C87.8729 10.063 87.442 9.9517 86.9496 9.9517C86.424 9.9517 85.9624 10.0795 85.5646 10.3352C85.1669 10.5862 84.8568 10.9176 84.6342 11.3295C84.4164 11.7367 84.3052 12.1842 84.3004 12.6719V14.1847C84.3004 14.8191 84.4164 15.3636 84.6484 15.8182C84.8804 16.268 85.2048 16.6136 85.6214 16.8551C86.0381 17.0919 86.5258 17.2102 87.0845 17.2102C87.4586 17.2102 87.7971 17.1581 88.1001 17.054C88.4032 16.9451 88.666 16.7865 88.8885 16.5781C89.111 16.3698 89.2791 16.1117 89.3928 15.804L91.7933 16.0739C91.6418 16.7083 91.353 17.2623 90.9268 17.7358C90.5054 18.2045 89.9657 18.5691 89.3075 18.8295C88.6494 19.0852 87.8965 19.2131 87.049 19.2131ZM96.646 12.608V19H94.0749V8.09091H96.5323V9.9446H96.6602C96.9111 9.33381 97.3112 8.84848 97.8604 8.48864C98.4144 8.12879 99.0986 7.94886 99.913 7.94886C100.666 7.94886 101.322 8.10985 101.88 8.43182C102.444 8.75379 102.879 9.22017 103.187 9.83097C103.5 10.4418 103.654 11.1828 103.649 12.054V19H101.078V12.4517C101.078 11.7225 100.888 11.152 100.51 10.7401C100.136 10.3281 99.6171 10.1222 98.9542 10.1222C98.5044 10.1222 98.1043 10.2216 97.7539 10.4205C97.4083 10.6146 97.136 10.8963 96.9371 11.2656C96.743 11.6349 96.646 12.0824 96.646 12.608Z" fill="#751FBB"/>
<path d="M22.1804 11.8074L19.4605 7.60728C19.3575 7.44745 19.2159 7.31608 19.0489 7.22523C18.8818 7.13439 18.6946 7.08697 18.5044 7.08735H6.5041C6.31421 7.08699 6.12726 7.13427 5.96037 7.22488C5.79349 7.31548 5.652 7.44651 5.54888 7.60596L2.82056 11.8066C2.54175 12.2358 2.58481 12.8025 2.92529 13.1847L11.649 22.9786C11.7559 23.0985 11.8869 23.1945 12.0335 23.2602C12.1801 23.326 12.3389 23.36 12.4995 23.3601C12.6601 23.36 12.819 23.326 12.9656 23.2602C13.1122 23.1945 13.2432 23.0986 13.3501 22.9787L22.0748 13.1841C22.4148 12.8024 22.4582 12.2363 22.1804 11.8074ZM17.9535 8.06387L15.6661 11.601L13.3773 8.06387H17.9535ZM14.7687 12.0117H10.2304L12.4995 8.50493L14.7687 12.0117ZM11.6217 8.06396L9.33926 11.5914L7.05757 8.06396H11.6217ZM6.15469 8.46606L8.44814 12.0117H3.85181L6.15469 8.46606ZM4.05806 12.9883H8.97236L11.5708 21.4226L4.05806 12.9883ZM12.4995 21.1203L9.99419 12.9883H15.0048L12.4995 21.1203ZM13.4282 21.4229L16.0267 12.9883H20.9415L13.4282 21.4229ZM16.5635 12.0117L18.8548 8.46851L21.1492 12.0117H16.5635ZM1.4811 12.0117H0.488281C0.218652 12.0117 0 12.2303 0 12.5C0 12.7697 0.218652 12.9883 0.488281 12.9883H1.4811C1.75073 12.9883 1.96938 12.7697 1.96938 12.5C1.96938 12.2303 1.75073 12.0117 1.4811 12.0117ZM24.5117 12.0117H23.5189C23.2493 12.0117 23.0306 12.2303 23.0306 12.5C23.0306 12.7697 23.2493 12.9883 23.5189 12.9883H24.5117C24.7813 12.9883 25 12.7697 25 12.5C25 12.2303 24.7813 12.0117 24.5117 12.0117ZM21.345 3.66372C21.1543 3.47305 20.8452 3.47305 20.6544 3.66372L19.0325 5.28564C18.8418 5.47632 18.8418 5.7855 19.0325 5.97617C19.0778 6.02158 19.1316 6.05759 19.1909 6.08213C19.2502 6.10668 19.3137 6.11927 19.3778 6.11919C19.442 6.11927 19.5055 6.10667 19.5647 6.08213C19.624 6.05759 19.6778 6.02158 19.7231 5.97617L21.345 4.35425C21.5357 4.16357 21.5357 3.85444 21.345 3.66372ZM5.98857 5.27695L4.3667 3.65498C4.17607 3.46431 3.86699 3.46431 3.67612 3.65498C3.48545 3.84565 3.48545 4.15483 3.67612 4.34551L5.29805 5.96743C5.34334 6.01284 5.39715 6.04885 5.45641 6.0734C5.51566 6.09794 5.57918 6.11053 5.64331 6.11045C5.70744 6.11052 5.77096 6.09793 5.83021 6.07338C5.88946 6.04884 5.94328 6.01283 5.98857 5.96743C6.17925 5.77681 6.17925 5.46758 5.98857 5.27695ZM12.5124 0C12.2428 0 12.0241 0.218604 12.0241 0.488281V3.67031C12.0241 3.93999 12.2427 4.15859 12.5124 4.15859C12.782 4.15859 13.0007 3.93999 13.0007 3.67031V0.488281C13.0007 0.218652 12.782 0 12.5124 0ZM12.8574 4.9769C12.7666 4.88608 12.6406 4.83384 12.5122 4.83384C12.3838 4.83384 12.2578 4.88608 12.167 4.9769C12.0758 5.06868 12.0244 5.19271 12.0239 5.32212C12.0239 5.45103 12.0761 5.57651 12.167 5.66733C12.2578 5.75864 12.3838 5.8104 12.5122 5.8104C12.6406 5.8104 12.7666 5.75864 12.8574 5.66733C12.9487 5.57651 13.0005 5.45054 13.0005 5.32212C13.0005 5.1937 12.9487 5.06777 12.8574 4.9769Z" fill="#751FBB"/>
</svg>
