<svg width="140" height="20" viewBox="0 0 140 20" fill="none" xmlns="http://www.w3.org/2000/svg">
<path d="M19.9478 7.24268C19.8839 7.04449 19.763 6.8695 19.6003 6.73953C19.4376 6.60957 19.2402 6.53036 19.0328 6.5118L13.2602 5.98761L10.9776 0.644899C10.8092 0.253366 10.426 0 10.0001 0C9.57421 0 9.19088 0.253405 9.0226 0.645875L6.73996 5.98765L0.966499 6.5118C0.759313 6.53078 0.562252 6.61015 0.39975 6.74007C0.237248 6.86999 0.116451 7.04475 0.052336 7.24268C-0.0793469 7.64769 0.0422576 8.09188 0.363164 8.37189L4.72655 12.1985L3.43988 17.8663C3.34574 18.283 3.50746 18.7138 3.85325 18.9637C4.03908 19.098 4.25654 19.1664 4.4758 19.1664C4.66487 19.1664 4.85238 19.1154 5.02074 19.0147L10.0001 16.0387L14.9776 19.0147C15.3419 19.2338 15.801 19.2138 16.146 18.9637C16.3149 18.8415 16.4442 18.6722 16.5176 18.4771C16.5911 18.282 16.6057 18.0696 16.5594 17.8663L15.2727 12.1985L19.6361 8.37267C19.7931 8.23558 19.9063 8.0554 19.9617 7.8545C20.0171 7.6536 20.0123 7.44085 19.9478 7.24268Z" fill="#FFC107"/>
<path d="M49.9478 7.24268C49.8839 7.04449 49.763 6.8695 49.6003 6.73953C49.4376 6.60957 49.2402 6.53036 49.0328 6.5118L43.2602 5.98761L40.9776 0.644899C40.8092 0.253366 40.426 0 40.0001 0C39.5742 0 39.1909 0.253405 39.0226 0.645875L36.74 5.98765L30.9665 6.5118C30.7593 6.53078 30.5623 6.61015 30.3998 6.74007C30.2372 6.86999 30.1165 7.04475 30.0523 7.24268C29.9207 7.64769 30.0423 8.09188 30.3632 8.37189L34.7266 12.1985L33.4399 17.8663C33.3457 18.283 33.5075 18.7138 33.8533 18.9637C34.0391 19.098 34.2565 19.1664 34.4758 19.1664C34.6649 19.1664 34.8524 19.1154 35.0207 19.0147L40.0001 16.0387L44.9776 19.0147C45.3419 19.2338 45.801 19.2138 46.146 18.9637C46.3149 18.8415 46.4442 18.6722 46.5176 18.4771C46.5911 18.282 46.6057 18.0696 46.5594 17.8663L45.2727 12.1985L49.6361 8.37267C49.7931 8.23558 49.9063 8.0554 49.9617 7.8545C50.0171 7.6536 50.0123 7.44085 49.9478 7.24268Z" fill="#FFC107"/>
<path d="M79.9478 7.24268C79.8839 7.04449 79.763 6.8695 79.6003 6.73953C79.4376 6.60957 79.2402 6.53036 79.0328 6.5118L73.2602 5.98761L70.9776 0.644899C70.8092 0.253366 70.426 0 70.0001 0C69.5742 0 69.1909 0.253405 69.0226 0.645875L66.74 5.98765L60.9665 6.5118C60.7593 6.53078 60.5623 6.61015 60.3998 6.74007C60.2372 6.86999 60.1165 7.04475 60.0523 7.24268C59.9207 7.64769 60.0423 8.09188 60.3632 8.37189L64.7266 12.1985L63.4399 17.8663C63.3457 18.283 63.5075 18.7138 63.8533 18.9637C64.0391 19.098 64.2565 19.1664 64.4758 19.1664C64.6649 19.1664 64.8524 19.1154 65.0207 19.0147L70.0001 16.0387L74.9776 19.0147C75.3419 19.2338 75.801 19.2138 76.146 18.9637C76.3149 18.8415 76.4442 18.6722 76.5176 18.4771C76.5911 18.282 76.6057 18.0696 76.5594 17.8663L75.2727 12.1985L79.6361 8.37267C79.7931 8.23558 79.9063 8.0554 79.9617 7.8545C80.0171 7.6536 80.0123 7.44085 79.9478 7.24268Z" fill="#FFC107"/>
<path d="M109.948 7.24268C109.884 7.04449 109.763 6.8695 109.6 6.73953C109.438 6.60957 109.24 6.53036 109.033 6.5118L103.26 5.98761L100.978 0.644899C100.809 0.253366 100.426 0 100 0C99.5742 0 99.1909 0.253405 99.0226 0.645875L96.74 5.98765L90.9665 6.5118C90.7593 6.53078 90.5623 6.61015 90.3998 6.74007C90.2372 6.86999 90.1165 7.04475 90.0523 7.24268C89.9207 7.64769 90.0423 8.09188 90.3632 8.37189L94.7266 12.1985L93.4399 17.8663C93.3457 18.283 93.5075 18.7138 93.8533 18.9637C94.0391 19.098 94.2565 19.1664 94.4758 19.1664C94.6649 19.1664 94.8524 19.1154 95.0207 19.0147L100 16.0387L104.978 19.0147C105.342 19.2338 105.801 19.2138 106.146 18.9637C106.315 18.8415 106.444 18.6722 106.518 18.4771C106.591 18.282 106.606 18.0696 106.559 17.8663L105.273 12.1985L109.636 8.37267C109.793 8.23558 109.906 8.0554 109.962 7.8545C110.017 7.6536 110.012 7.44085 109.948 7.24268Z" fill="#FFC107"/>
<path d="M139.948 7.24268C139.884 7.04449 139.763 6.8695 139.6 6.73953C139.438 6.60957 139.24 6.53036 139.033 6.5118L133.26 5.98761L130.978 0.644899C130.809 0.253366 130.426 0 130 0C129.574 0 129.191 0.253405 129.023 0.645875L126.74 5.98765L120.966 6.5118C120.759 6.53078 120.562 6.61015 120.4 6.74007C120.237 6.86999 120.116 7.04475 120.052 7.24268C119.921 7.64769 120.042 8.09188 120.363 8.37189L124.727 12.1985L123.44 17.8663C123.346 18.283 123.507 18.7138 123.853 18.9637C124.039 19.098 124.257 19.1664 124.476 19.1664C124.665 19.1664 124.852 19.1154 125.021 19.0147L130 16.0387L134.978 19.0147C135.342 19.2338 135.801 19.2138 136.146 18.9637C136.315 18.8415 136.444 18.6722 136.518 18.4771C136.591 18.282 136.606 18.0696 136.559 17.8663L135.273 12.1985L139.636 8.37267C139.793 8.23558 139.906 8.0554 139.962 7.8545C140.017 7.6536 140.012 7.44085 139.948 7.24268Z" fill="#FFC107"/>
</svg>
