<svg width="15" height="15" viewBox="0 0 15 15" fill="none" xmlns="http://www.w3.org/2000/svg">
<path d="M10.6271 0.466797C9.92777 0.466797 9.2593 0.627127 8.6404 0.943364C8.2191 1.15859 7.83207 1.44455 7.5 1.78383C7.1679 1.44455 6.7809 1.15859 6.3596 0.943364C5.74067 0.627127 5.07223 0.466797 4.37282 0.466797C1.96166 0.466797 0 2.42846 0 4.83965C0 6.54746 0.901949 8.36128 2.68076 10.2308C4.16598 11.7918 5.98435 13.093 7.24822 13.9097L7.5 14.0724L7.75178 13.9097C9.01565 13.093 10.834 11.7918 12.3193 10.2308C14.0981 8.36128 15 6.54746 15 4.83965C15 2.42846 13.0383 0.466797 10.6271 0.466797ZM11.6471 9.59122C10.3197 10.9863 8.70288 12.1722 7.5 12.9659C6.29712 12.1722 4.68028 10.9863 3.35295 9.59122C1.74374 7.90002 0.927835 6.30136 0.927835 4.83965C0.927835 2.94007 2.47327 1.39463 4.37286 1.39463C5.4665 1.39463 6.47112 1.89699 7.12908 2.77287L7.5 3.26663L7.87092 2.77287C8.52888 1.89699 9.5335 1.39463 10.6271 1.39463C12.5267 1.39463 14.0722 2.94007 14.0722 4.83965C14.0722 6.30136 13.2562 7.90002 11.6471 9.59122Z" fill="black"/>
</svg>
